<svg xmlns="http://www.w3.org/2000/svg" width="298.08" height="98.79" viewBox="0 0 298.08 98.79"><path d="M258.18,44.37h-8V65.43h-7.61V44.37h-8V37.74h23.56v6.63Z" transform="translate(-234.62 -9.9)"/><path d="M281.69,65.43h-7.41V53.89a3,3,0,0,0-.68-2.2,2.3,2.3,0,0,0-1.7-.68,2.16,2.16,0,0,0-.84.21,4.82,4.82,0,0,0-1,.58,5.22,5.22,0,0,0-1.62,2.13v11.5h-7.41V37h7.41V48a7.18,7.18,0,0,1,2.85-2.55,8.68,8.68,0,0,1,3.94-.88,6.86,6.86,0,0,1,3.43.74,5.26,5.26,0,0,1,2,1.85,6.56,6.56,0,0,1,.86,2.4,16.21,16.21,0,0,1,.2,2.42V65.43Z" transform="translate(-234.62 -9.9)"/><path d="M291.95,65.82a7.9,7.9,0,0,1-2.85-.51,7,7,0,0,1-2.28-1.38,6.34,6.34,0,0,1-1.5-2.09,6.27,6.27,0,0,1-.55-2.61,6.12,6.12,0,0,1,.66-2.85,6.82,6.82,0,0,1,1.83-2.22,8.45,8.45,0,0,1,2.79-1.44,11.9,11.9,0,0,1,3.57-.51,9.61,9.61,0,0,1,4.13.78V52.37a2.64,2.64,0,0,0-.84-2.15,4.21,4.21,0,0,0-2.71-.7,9,9,0,0,0-3.24.57,15.94,15.94,0,0,0-3.12,1.66l-2.15-4.6A16.7,16.7,0,0,1,295,44.53q4.91,0,7.57,2.18t2.65,6.55v4a2.5,2.5,0,0,0,.31,1.46,1.49,1.49,0,0,0,1.09.49v6.24q-0.9.19-1.7,0.29a12,12,0,0,1-1.42.1,5.27,5.27,0,0,1-3-.72A3.36,3.36,0,0,1,299.09,63l-0.16-.74a9.45,9.45,0,0,1-3.16,2.67A8.3,8.3,0,0,1,291.95,65.82Zm2.22-5.3a4.66,4.66,0,0,0,1.37-.21,5,5,0,0,0,1.25-.57,3.2,3.2,0,0,0,.7-0.68,1.27,1.27,0,0,0,.27-0.76V56.77a10.62,10.62,0,0,0-1.44-.39,7.28,7.28,0,0,0-1.4-.16,3.7,3.7,0,0,0-2.26.66,2,2,0,0,0-.9,1.68,1.72,1.72,0,0,0,.68,1.4A2.69,2.69,0,0,0,294.17,60.52Z" transform="translate(-234.62 -9.9)"/><path d="M309.89,43.2V37h7.41V43.2h-7.41Zm0,22.23V44.92h7.41V65.43h-7.41Z" transform="translate(-234.62 -9.9)"/><path d="M330.13,65.82a16.21,16.21,0,0,1-5.26-.88,11.92,11.92,0,0,1-4.37-2.55L323,57.94a19.46,19.46,0,0,0,3.69,2,8.91,8.91,0,0,0,3.26.7q1.56,0,1.56-1a1.12,1.12,0,0,0-.6-0.94,10.19,10.19,0,0,0-2.36-.9,34.39,34.39,0,0,1-3.65-1.23,10.54,10.54,0,0,1-2.38-1.31,4.15,4.15,0,0,1-1.31-1.56,4.85,4.85,0,0,1-.39-2,6.69,6.69,0,0,1,.62-2.89,7,7,0,0,1,1.74-2.3,7.8,7.8,0,0,1,2.65-1.5,10.37,10.37,0,0,1,3.37-.53,15.6,15.6,0,0,1,4.31.58,11,11,0,0,1,4.12,2.38l-2.81,4.45a20.16,20.16,0,0,0-3.2-1.77,6.41,6.41,0,0,0-2.42-.53,2.12,2.12,0,0,0-1.09.25,0.86,0.86,0,0,0-.43.8,1.09,1.09,0,0,0,.62,1,10.72,10.72,0,0,0,2.46.84,28.06,28.06,0,0,1,3.74,1.23,9.81,9.81,0,0,1,2.44,1.4,4.41,4.41,0,0,1,1.31,1.72,5.82,5.82,0,0,1,.39,2.2,6.64,6.64,0,0,1-.58,2.85,6,6,0,0,1-1.7,2.15,7.73,7.73,0,0,1-2.69,1.36A12.55,12.55,0,0,1,330.13,65.82Z" transform="translate(-234.62 -9.9)"/><path d="M236.61,100.43V72.74h19v6.63H244.22V84h9.28v6.16h-9.28v10.3h-7.61Z" transform="translate(-234.62 -9.9)"/><path d="M267.65,100.82a12.88,12.88,0,0,1-4.8-.84,10.15,10.15,0,0,1-3.53-2.28,9.79,9.79,0,0,1-2.16-3.31,10.6,10.6,0,0,1-.74-3.94,12.25,12.25,0,0,1,.72-4.21,9.74,9.74,0,0,1,2.14-3.47,10.37,10.37,0,0,1,3.51-2.36,13.82,13.82,0,0,1,9.69,0A10.48,10.48,0,0,1,276,82.74a9.67,9.67,0,0,1,2.14,3.39,11.45,11.45,0,0,1,.72,4q0,0.58-.06,1.19c0,0.4-.08.76-0.14,1.07H264.3a2.88,2.88,0,0,0,1.21,2.36,4.22,4.22,0,0,0,2.38.72,5,5,0,0,0,2.28-.55,2.75,2.75,0,0,0,1.42-1.52l6.28,1.79a9.9,9.9,0,0,1-3.84,4A12.17,12.17,0,0,1,267.65,100.82ZM270.93,88a3.81,3.81,0,0,0-1.09-2.34,3.51,3.51,0,0,0-4.6,0A3.81,3.81,0,0,0,264.14,88h6.79Z" transform="translate(-234.62 -9.9)"/><path d="M295.85,86.24a15.14,15.14,0,0,0-3.9.47,4.75,4.75,0,0,0-2.61,1.56v12.17h-7.41V79.92h6.79v3.9a8.66,8.66,0,0,1,2.71-3.18,6,6,0,0,1,3.49-1.11,6.65,6.65,0,0,1,.94,0v6.67Z" transform="translate(-234.62 -9.9)"/><path d="M312.7,86.24a15.14,15.14,0,0,0-3.9.47,4.75,4.75,0,0,0-2.61,1.56v12.17h-7.41V79.92h6.79v3.9a8.66,8.66,0,0,1,2.71-3.18,6,6,0,0,1,3.49-1.11,6.65,6.65,0,0,1,.94,0v6.67Z" transform="translate(-234.62 -9.9)"/><path d="M325.72,100.82a12.88,12.88,0,0,1-4.8-.84,10.15,10.15,0,0,1-3.53-2.28,9.79,9.79,0,0,1-2.16-3.31,10.6,10.6,0,0,1-.74-3.94,12.25,12.25,0,0,1,.72-4.21,9.74,9.74,0,0,1,2.14-3.47,10.37,10.37,0,0,1,3.51-2.36,13.82,13.82,0,0,1,9.69,0,10.48,10.48,0,0,1,3.53,2.34,9.67,9.67,0,0,1,2.14,3.39,11.45,11.45,0,0,1,.72,4q0,0.58-.06,1.19c0,0.4-.08.76-0.14,1.07H322.37a2.88,2.88,0,0,0,1.21,2.36,4.22,4.22,0,0,0,2.38.72,5,5,0,0,0,2.28-.55,2.75,2.75,0,0,0,1.42-1.52l6.28,1.79a9.9,9.9,0,0,1-3.84,4A12.17,12.17,0,0,1,325.72,100.82ZM329,88a3.81,3.81,0,0,0-1.09-2.34,3.51,3.51,0,0,0-4.6,0A3.81,3.81,0,0,0,322.21,88H329Z" transform="translate(-234.62 -9.9)"/><path d="M340,78.2V72h7.41V78.2H340Zm0,22.23V79.92h7.41v20.51H340Z" transform="translate(-234.62 -9.9)"/><path d="M365.7,86.24a15.14,15.14,0,0,0-3.9.47,4.75,4.75,0,0,0-2.61,1.56v12.17h-7.41V79.92h6.79v3.9a8.66,8.66,0,0,1,2.71-3.18,6,6,0,0,1,3.49-1.11,6.65,6.65,0,0,1,.94,0v6.67Z" transform="translate(-234.62 -9.9)"/><path d="M374.43,100.82a7.9,7.9,0,0,1-2.85-.51,7.06,7.06,0,0,1-2.28-1.38,6.34,6.34,0,0,1-1.5-2.09,6.27,6.27,0,0,1-.55-2.61,6.12,6.12,0,0,1,.66-2.85,6.82,6.82,0,0,1,1.83-2.22,8.45,8.45,0,0,1,2.79-1.44,11.9,11.9,0,0,1,3.57-.51,9.61,9.61,0,0,1,4.13.78V87.37a2.64,2.64,0,0,0-.84-2.15,4.21,4.21,0,0,0-2.71-.7,9,9,0,0,0-3.24.57,15.94,15.94,0,0,0-3.12,1.66l-2.15-4.6a16.7,16.7,0,0,1,9.24-2.61q4.91,0,7.57,2.18t2.65,6.55v4A2.51,2.51,0,0,0,388,93.7a1.49,1.49,0,0,0,1.09.49v6.24q-0.9.19-1.7,0.29a12,12,0,0,1-1.42.1,5.26,5.26,0,0,1-3-.72A3.36,3.36,0,0,1,381.57,98l-0.16-.74a9.46,9.46,0,0,1-3.16,2.67A8.3,8.3,0,0,1,374.43,100.82Zm2.22-5.3A4.64,4.64,0,0,0,378,95.3a5,5,0,0,0,1.25-.57,3.18,3.18,0,0,0,.7-0.68,1.27,1.27,0,0,0,.27-0.76V91.77a10.48,10.48,0,0,0-1.44-.39,7.28,7.28,0,0,0-1.4-.16,3.7,3.7,0,0,0-2.26.66,2,2,0,0,0-.9,1.68,1.72,1.72,0,0,0,.68,1.4A2.69,2.69,0,0,0,376.66,95.52Z" transform="translate(-234.62 -9.9)"/><polygon points="148.95 54.14 145.8 13.13 126.38 0.34 113.48 13.13 117.11 24.78 148.95 54.14" fill="#e3bf24"/><polygon points="148.95 54.14 157.11 13.13 137.69 0.34 124.8 13.13 128.43 24.78 148.95 54.14" fill="#455ca7"/><polygon points="133.18 4.82 124.8 13.13 128.43 24.78 148.95 54.14 145.8 13.13 133.18 4.82" fill="#028847"/><polygon points="148.97 54.09 152.12 13.07 171.54 0.28 184.44 13.07 180.81 24.72 148.97 54.09" fill="#5c3469"/><polygon points="148.97 54.09 140.81 13.07 160.23 0.28 173.13 13.07 169.49 24.72 148.97 54.09" fill="#e68424"/><polygon points="164.75 4.76 173.13 13.07 169.49 24.72 148.97 54.09 152.12 13.07 164.75 4.76" fill="#d94268"/><polygon points="161.85 12.79 148.96 0 136.06 12.79 148.96 54.14 161.85 12.79" fill="#231f20"/><path d="M448,41.35a6.76,6.76,0,0,1-1.86,5.14,7.49,7.49,0,0,1-5.37,1.78H437V34.69h4.19a6.94,6.94,0,0,1,5,1.74A6.52,6.52,0,0,1,448,41.35Zm-2.34.07q0-4.87-4.56-4.87h-1.92v9.84h1.58Q445.69,46.39,445.69,41.42Z" transform="translate(-234.62 -9.9)"/><path d="M455.34,48.44A5,5,0,0,1,451.6,47a5.3,5.3,0,0,1-1.35-3.85,5.81,5.81,0,0,1,1.25-4,4.32,4.32,0,0,1,3.44-1.44A4.23,4.23,0,0,1,458.15,39a4.72,4.72,0,0,1,1.18,3.4v1.18H452.5a3.37,3.37,0,0,0,.81,2.3,2.81,2.81,0,0,0,2.14.8,7.86,7.86,0,0,0,1.69-.17,8.88,8.88,0,0,0,1.68-.57v1.77a6.7,6.7,0,0,1-1.61.54A9.87,9.87,0,0,1,455.34,48.44Zm-0.4-9a2.19,2.19,0,0,0-1.67.66,3.14,3.14,0,0,0-.75,1.92h4.66a2.84,2.84,0,0,0-.61-1.92A2.09,2.09,0,0,0,454.94,39.46Z" transform="translate(-234.62 -9.9)"/><path d="M467.17,48.44a3.6,3.6,0,0,1-3-1.4H464q0.13,1.3.13,1.58v4.2H462V38h1.76q0.07,0.29.31,1.37h0.11a3.42,3.42,0,0,1,3.06-1.56,3.56,3.56,0,0,1,3,1.39,6.27,6.27,0,0,1,1.07,3.91A6.28,6.28,0,0,1,470.18,47,3.59,3.59,0,0,1,467.17,48.44Zm-0.53-8.85a2.27,2.27,0,0,0-1.9.76,4,4,0,0,0-.6,2.43v0.33a4.8,4.8,0,0,0,.59,2.71,2.21,2.21,0,0,0,1.94.84,2,2,0,0,0,1.74-.93,4.79,4.79,0,0,0,.61-2.64,4.63,4.63,0,0,0-.61-2.61A2,2,0,0,0,466.64,39.59Z" transform="translate(-234.62 -9.9)"/><path d="M481.19,48.26l-0.31-1.35h-0.11A3.09,3.09,0,0,1,479.48,48a4.32,4.32,0,0,1-1.92.41,3.76,3.76,0,0,1-2.78-.93,3.84,3.84,0,0,1-.92-2.81V38h2.2v6.33a2.75,2.75,0,0,0,.48,1.77,1.84,1.84,0,0,0,1.51.59,2.41,2.41,0,0,0,2-.82,4.52,4.52,0,0,0,.65-2.75V38h2.19V48.26h-1.72Z" transform="translate(-234.62 -9.9)"/><path d="M490,46.68a5.27,5.27,0,0,0,1.6-.25v1.64a4.38,4.38,0,0,1-.93.26,6.49,6.49,0,0,1-1.18.11q-3.1,0-3.1-3.27V39.65H485v-1l1.5-.8,0.74-2.17h1.34V38h2.92v1.65h-2.92v5.49A1.54,1.54,0,0,0,489,46.3,1.43,1.43,0,0,0,490,46.68Z" transform="translate(-234.62 -9.9)"/><path d="M500.2,48.26l-0.44-1.43h-0.07a4.2,4.2,0,0,1-1.49,1.28,4.73,4.73,0,0,1-1.93.34,3.27,3.27,0,0,1-2.36-.82,3.06,3.06,0,0,1-.85-2.31,2.71,2.71,0,0,1,1.18-2.39,6.78,6.78,0,0,1,3.59-.88L499.6,42V41.44a2.07,2.07,0,0,0-.46-1.47,1.87,1.87,0,0,0-1.42-.49,4.93,4.93,0,0,0-1.51.23,11.59,11.59,0,0,0-1.39.55l-0.71-1.56a7.57,7.57,0,0,1,1.83-.66,8.42,8.42,0,0,1,1.87-.23,4.44,4.44,0,0,1,3,.85,3.34,3.34,0,0,1,1,2.68v6.91H500.2ZM497,46.77a2.7,2.7,0,0,0,1.91-.66,2.41,2.41,0,0,0,.72-1.86V43.36l-1.32.06a4.51,4.51,0,0,0-2.24.51,1.57,1.57,0,0,0-.7,1.41,1.37,1.37,0,0,0,.41,1.06A1.75,1.75,0,0,0,497,46.77Z" transform="translate(-234.62 -9.9)"/><path d="M508.42,48.44a3.57,3.57,0,0,1-3-1.39,6.25,6.25,0,0,1-1.08-3.91,6.28,6.28,0,0,1,1.09-3.93,3.61,3.61,0,0,1,3-1.41,3.54,3.54,0,0,1,3.08,1.49h0.11a13,13,0,0,1-.16-1.74V33.82h2.19V48.26H512l-0.38-1.35h-0.1A3.48,3.48,0,0,1,508.42,48.44ZM509,46.68a2.37,2.37,0,0,0,2-.76,4,4,0,0,0,.63-2.45V43.16a4.6,4.6,0,0,0-.63-2.75,2.34,2.34,0,0,0-2-.82,2,2,0,0,0-1.77.93,4.78,4.78,0,0,0-.62,2.66,4.65,4.65,0,0,0,.6,2.6A2,2,0,0,0,509,46.68Z" transform="translate(-234.62 -9.9)"/><path d="M523.37,48.26l-0.44-1.43h-0.07a4.2,4.2,0,0,1-1.49,1.28,4.73,4.73,0,0,1-1.93.34,3.27,3.27,0,0,1-2.36-.82,3.06,3.06,0,0,1-.85-2.31,2.71,2.71,0,0,1,1.18-2.39A6.78,6.78,0,0,1,521,42l1.77-.06V41.44a2.07,2.07,0,0,0-.46-1.47,1.87,1.87,0,0,0-1.42-.49,4.93,4.93,0,0,0-1.51.23,11.59,11.59,0,0,0-1.39.55l-0.71-1.56A7.57,7.57,0,0,1,519.1,38a8.42,8.42,0,0,1,1.87-.23,4.44,4.44,0,0,1,3,.85,3.34,3.34,0,0,1,1,2.68v6.91h-1.56Zm-3.25-1.48a2.7,2.7,0,0,0,1.91-.66,2.41,2.41,0,0,0,.72-1.86V43.36l-1.32.06a4.51,4.51,0,0,0-2.24.51,1.57,1.57,0,0,0-.7,1.41,1.37,1.37,0,0,0,.41,1.06A1.75,1.75,0,0,0,520.12,46.77Z" transform="translate(-234.62 -9.9)"/><path d="M434.67,65.93H427V52.37h7.67v1.87h-5.46v3.69h5.11v1.86h-5.11v4.26h5.46v1.88Z" transform="translate(-234.62 -9.9)"/><path d="M444.42,63a2.68,2.68,0,0,1-1.09,2.3,5.24,5.24,0,0,1-3.14.8,7.41,7.41,0,0,1-3.29-.62V63.62a8.08,8.08,0,0,0,3.37.83q2,0,2-1.21a1,1,0,0,0-.22-0.65,2.64,2.64,0,0,0-.73-0.54,12.54,12.54,0,0,0-1.42-.63A6.58,6.58,0,0,1,437.5,60a2.54,2.54,0,0,1-.63-1.78,2.34,2.34,0,0,1,1.06-2,5,5,0,0,1,2.89-.73,8.18,8.18,0,0,1,3.42.73l-0.71,1.64a7.61,7.61,0,0,0-2.79-.69q-1.73,0-1.73,1a1,1,0,0,0,.45.82,10,10,0,0,0,2,.92,8.93,8.93,0,0,1,1.85.9,2.7,2.7,0,0,1,.85.94A2.73,2.73,0,0,1,444.42,63Z" transform="translate(-234.62 -9.9)"/><path d="M450.75,64.36a5.27,5.27,0,0,0,1.6-.25v1.64a4.38,4.38,0,0,1-.93.26,6.49,6.49,0,0,1-1.18.11q-3.1,0-3.1-3.27V57.33h-1.4v-1l1.5-.8L448,53.39h1.34v2.28h2.92v1.65h-2.92v5.49a1.54,1.54,0,0,0,.39,1.16A1.43,1.43,0,0,0,450.75,64.36Z" transform="translate(-234.62 -9.9)"/><path d="M461,65.93l-0.44-1.43h-0.07A4.2,4.2,0,0,1,459,65.78a4.73,4.73,0,0,1-1.93.34,3.27,3.27,0,0,1-2.36-.82,3.06,3.06,0,0,1-.85-2.31A2.71,2.71,0,0,1,455,60.6a6.78,6.78,0,0,1,3.59-.88l1.77-.06V59.12a2.07,2.07,0,0,0-.46-1.47,1.87,1.87,0,0,0-1.42-.49,4.93,4.93,0,0,0-1.51.23,11.59,11.59,0,0,0-1.39.55l-0.71-1.56a7.57,7.57,0,0,1,1.83-.66,8.42,8.42,0,0,1,1.87-.23,4.44,4.44,0,0,1,3,.85,3.34,3.34,0,0,1,1,2.68v6.91H461Zm-3.25-1.48a2.7,2.7,0,0,0,1.91-.66,2.41,2.41,0,0,0,.72-1.86V61l-1.32.06a4.51,4.51,0,0,0-2.24.51,1.57,1.57,0,0,0-.7,1.41,1.37,1.37,0,0,0,.41,1.06A1.75,1.75,0,0,0,457.72,64.45Z" transform="translate(-234.62 -9.9)"/><path d="M469.18,66.12a3.57,3.57,0,0,1-3-1.39,6.25,6.25,0,0,1-1.08-3.91,6.28,6.28,0,0,1,1.09-3.93,3.61,3.61,0,0,1,3-1.41A3.54,3.54,0,0,1,472.3,57h0.11a13,13,0,0,1-.16-1.74V51.5h2.19V65.93h-1.71l-0.38-1.35h-0.1A3.48,3.48,0,0,1,469.18,66.12Zm0.58-1.76a2.37,2.37,0,0,0,2-.76,4,4,0,0,0,.63-2.45V60.84a4.6,4.6,0,0,0-.63-2.75,2.34,2.34,0,0,0-2-.82,2,2,0,0,0-1.77.93,4.78,4.78,0,0,0-.62,2.66,4.65,4.65,0,0,0,.6,2.6A2,2,0,0,0,469.76,64.36Z" transform="translate(-234.62 -9.9)"/><path d="M484.94,65.93l-0.31-1.35h-0.11a3.09,3.09,0,0,1-1.29,1.12,4.32,4.32,0,0,1-1.92.41,3.76,3.76,0,0,1-2.78-.93,3.84,3.84,0,0,1-.92-2.81V55.67h2.2V62a2.75,2.75,0,0,0,.48,1.77,1.84,1.84,0,0,0,1.51.59,2.41,2.41,0,0,0,2-.82,4.52,4.52,0,0,0,.65-2.75V55.67h2.19V65.93h-1.72Z" transform="translate(-234.62 -9.9)"/><path d="M496.34,65.93l-0.44-1.43h-0.07a4.2,4.2,0,0,1-1.49,1.28,4.73,4.73,0,0,1-1.93.34A3.27,3.27,0,0,1,490,65.3,3.06,3.06,0,0,1,489.2,63a2.71,2.71,0,0,1,1.18-2.39,6.78,6.78,0,0,1,3.59-.88l1.77-.06V59.12a2.07,2.07,0,0,0-.46-1.47,1.87,1.87,0,0,0-1.42-.49,4.93,4.93,0,0,0-1.51.23,11.59,11.59,0,0,0-1.39.55l-0.71-1.56a7.57,7.57,0,0,1,1.83-.66,8.42,8.42,0,0,1,1.87-.23,4.44,4.44,0,0,1,3,.85,3.34,3.34,0,0,1,1,2.68v6.91h-1.56Zm-3.25-1.48a2.7,2.7,0,0,0,1.91-.66,2.41,2.41,0,0,0,.72-1.86V61l-1.32.06a4.51,4.51,0,0,0-2.24.51,1.57,1.57,0,0,0-.7,1.41,1.37,1.37,0,0,0,.41,1.06A1.75,1.75,0,0,0,493.09,64.45Z" transform="translate(-234.62 -9.9)"/><path d="M503.27,65.93h-2.18V51.5h2.18V65.93Z" transform="translate(-234.62 -9.9)"/><path d="M413.71,87.29a11.55,11.55,0,0,1,4.28.77,10.12,10.12,0,0,1,3.36,2.14,9.62,9.62,0,0,1,2.21,3.29,11.58,11.58,0,0,1-.11,8.67,9.93,9.93,0,0,1-2.55,3.47,12,12,0,0,1-3.92,2.25,16,16,0,0,1-11.35-.5,9.93,9.93,0,0,1-4.35-3.74L406,98.24a10,10,0,0,0,2.91,2.19,7,7,0,0,0,3.13.79,3.63,3.63,0,0,0,2.61-.9,3.2,3.2,0,0,0,.95-2.43,3.33,3.33,0,0,0-.86-2.39,3,3,0,0,0-2.25-.9,3.59,3.59,0,0,0-1.74.43,3,3,0,0,0-1.19,1.15h-7.34L406,76.25h16V84h-9.87l-0.5,3.47,0.5-.09,0.63-.09A8.93,8.93,0,0,1,413.71,87.29Z" transform="translate(-234.62 -9.9)" fill="#e68424"/><path d="M451.65,88.77a16,16,0,0,1-.9,5.47,13.36,13.36,0,0,1-2.5,4.32,11.31,11.31,0,0,1-3.79,2.84,11.65,11.65,0,0,1-9.51,0,11.3,11.3,0,0,1-3.79-2.84,13.34,13.34,0,0,1-2.5-4.32,17.07,17.07,0,0,1,0-10.95,13.35,13.35,0,0,1,2.5-4.33A11.58,11.58,0,0,1,435,76.11a11.43,11.43,0,0,1,9.51,0A11.59,11.59,0,0,1,448.25,79a13.36,13.36,0,0,1,2.5,4.33A16,16,0,0,1,451.65,88.77Zm-8.65,0a8.51,8.51,0,0,0-.92-4.24,2.71,2.71,0,0,0-2.37-1.62,2.77,2.77,0,0,0-2.46,1.62,8.51,8.51,0,0,0-.92,4.24,8.38,8.38,0,0,0,.92,4.21,2.77,2.77,0,0,0,2.46,1.6,2.71,2.71,0,0,0,2.37-1.6A8.38,8.38,0,0,0,443,88.77Z" transform="translate(-234.62 -9.9)" fill="#e68424"/><path d="M479.67,88.77a16,16,0,0,1-.9,5.47,13.36,13.36,0,0,1-2.5,4.32,11.31,11.31,0,0,1-3.79,2.84,11.65,11.65,0,0,1-9.51,0,11.3,11.3,0,0,1-3.79-2.84,13.34,13.34,0,0,1-2.5-4.32,17.07,17.07,0,0,1,0-10.95A13.35,13.35,0,0,1,459.2,79,11.58,11.58,0,0,1,463,76.11a11.43,11.43,0,0,1,9.51,0A11.59,11.59,0,0,1,476.27,79a13.36,13.36,0,0,1,2.5,4.33A16,16,0,0,1,479.67,88.77Zm-8.65,0a8.51,8.51,0,0,0-.92-4.24,2.71,2.71,0,0,0-2.37-1.62,2.77,2.77,0,0,0-2.46,1.62,8.51,8.51,0,0,0-.92,4.24,8.38,8.38,0,0,0,.92,4.21,2.77,2.77,0,0,0,2.46,1.6A2.71,2.71,0,0,0,470.1,93,8.38,8.38,0,0,0,471,88.77Z" transform="translate(-234.62 -9.9)" fill="#e68424"/><path d="M505.49,94.32V102H484.63V94.32H491v-9a4.42,4.42,0,0,1-1.26,1.06,15.08,15.08,0,0,1-1.91,1,14.38,14.38,0,0,1-2.14.72,8.08,8.08,0,0,1-1.94.27V80.53a5,5,0,0,0,1.76-.47,19.77,19.77,0,0,0,2.25-1.13,16.28,16.28,0,0,0,2-1.4A4.43,4.43,0,0,0,491,76.25h8.74V94.32h5.72Z" transform="translate(-234.62 -9.9)" fill="#e68424"/><path d="M532.71,88.77a16,16,0,0,1-.9,5.47,13.36,13.36,0,0,1-2.5,4.32,11.31,11.31,0,0,1-3.79,2.84,11.65,11.65,0,0,1-9.51,0,11.3,11.3,0,0,1-3.79-2.84,13.34,13.34,0,0,1-2.5-4.32,17.07,17.07,0,0,1,0-10.95,13.35,13.35,0,0,1,2.5-4.33A11.58,11.58,0,0,1,516,76.11a11.43,11.43,0,0,1,9.51,0A11.59,11.59,0,0,1,529.3,79a13.36,13.36,0,0,1,2.5,4.33A16,16,0,0,1,532.71,88.77Zm-8.65,0a8.51,8.51,0,0,0-.92-4.24,2.71,2.71,0,0,0-2.37-1.62,2.77,2.77,0,0,0-2.46,1.62,8.51,8.51,0,0,0-.92,4.24,8.38,8.38,0,0,0,.92,4.21,2.77,2.77,0,0,0,2.46,1.6,2.71,2.71,0,0,0,2.37-1.6A8.38,8.38,0,0,0,524.05,88.77Z" transform="translate(-234.62 -9.9)" fill="#e68424"/></svg>
